<svg width="31" height="32" viewBox="0 0 31 32" fill="none" xmlns="http://www.w3.org/2000/svg">
<path d="M25.3167 28L17.1792 19.6C16.5333 20.1333 15.7906 20.5556 14.951 20.8667C14.1115 21.1778 13.2181 21.3333 12.2708 21.3333C9.92431 21.3333 7.93837 20.4944 6.31302 18.8167C4.68767 17.1389 3.875 15.0889 3.875 12.6667C3.875 10.2444 4.68767 8.19444 6.31302 6.51667C7.93837 4.83889 9.92431 4 12.2708 4C14.6174 4 16.6033 4.83889 18.2286 6.51667C19.854 8.19444 20.6667 10.2444 20.6667 12.6667C20.6667 13.6444 20.516 14.5667 20.2146 15.4333C19.9132 16.3 19.5042 17.0667 18.9875 17.7333L27.125 26.1333L25.3167 28ZM12.2708 18.6667C13.8854 18.6667 15.2578 18.0833 16.388 16.9167C17.5182 15.75 18.0833 14.3333 18.0833 12.6667C18.0833 11 17.5182 9.58333 16.388 8.41667C15.2578 7.25 13.8854 6.66667 12.2708 6.66667C10.6562 6.66667 9.28385 7.25 8.15365 8.41667C7.02344 9.58333 6.45833 11 6.45833 12.6667C6.45833 14.3333 7.02344 15.75 8.15365 16.9167C9.28385 18.0833 10.6562 18.6667 12.2708 18.6667Z" fill="#F5E9D7"/>
</svg>
